<svg width="37" height="41" viewBox="0 0 37 41" fill="none" xmlns="http://www.w3.org/2000/svg">
<g filter="url(#filter0_d_291_1905)">
<ellipse cx="18.5" cy="19" rx="18.5" ry="19" fill="#4CDAFE"/>
<path d="M35.5 19C35.5 28.7029 27.8514 36.5 18.5 36.5C9.14862 36.5 1.5 28.7029 1.5 19C1.5 9.29706 9.14862 1.5 18.5 1.5C27.8514 1.5 35.5 9.29706 35.5 19Z" stroke="white" stroke-width="3"/>
</g>
<path d="M16.2669 9.96229L16.2669 9.9623L9.65138 16.9704C9.65131 16.9704 9.65124 16.9705 9.65117 16.9706C9.65115 16.9706 9.65112 16.9706 9.6511 16.9706C9.06706 17.5885 8.75 18.4058 8.75 19.2674C8.75 20.1284 9.06637 20.9463 9.64656 21.5586C10.1258 22.0674 10.7407 22.3921 11.4094 22.4922V25.8825C11.4094 27.5764 12.7132 29 14.3806 29H22.6195C24.2869 29 25.5907 27.5764 25.5907 25.8825V22.4924C26.2584 22.3927 26.8727 22.0692 27.351 21.5606C28.5498 20.2928 28.5494 18.2408 27.3513 16.9718L20.7381 9.96795C20.7379 9.96771 20.7377 9.96747 20.7375 9.96723C20.1548 9.34649 19.3698 9.00003 18.529 9.00003H18.4703C17.6329 9.00003 16.8496 9.34511 16.2669 9.96229ZM19.5443 25.29C19.5443 25.7981 19.1019 26.2551 18.4992 26.2551C17.8972 26.2551 17.4549 25.7984 17.4549 25.29V23.5449C17.4549 23.0365 17.8971 22.5797 18.4992 22.5797C19.1018 22.5797 19.5443 23.0366 19.5443 23.5449V25.29Z" fill="white" stroke="#00ADE3"/>
<defs>
<filter id="filter0_d_291_1905" x="0" y="0" width="37" height="41" filterUnits="userSpaceOnUse" color-interpolation-filters="sRGB">
<feFlood flood-opacity="0" result="BackgroundImageFix"/>
<feColorMatrix in="SourceAlpha" type="matrix" values="0 0 0 0 0 0 0 0 0 0 0 0 0 0 0 0 0 0 127 0" result="hardAlpha"/>
<feOffset dy="3"/>
<feComposite in2="hardAlpha" operator="out"/>
<feColorMatrix type="matrix" values="0 0 0 0 0.00392157 0 0 0 0 0.705882 0 0 0 0 0.929412 0 0 0 1 0"/>
<feBlend mode="normal" in2="BackgroundImageFix" result="effect1_dropShadow_291_1905"/>
<feBlend mode="normal" in="SourceGraphic" in2="effect1_dropShadow_291_1905" result="shape"/>
</filter>
</defs>
</svg>
