<svg width="24" height="24" viewBox="0 0 24 24" fill="none" xmlns="http://www.w3.org/2000/svg">
<path d="M15.7158 4.35401C14.6905 3.32891 13.4067 2.60053 12.0008 2.24614C10.5948 1.89176 9.11918 1.9246 7.73041 2.34118C6.34163 2.75776 5.09154 3.54254 4.11278 4.61225C3.13402 5.68195 2.46311 6.99667 2.17124 8.41689C1.87937 9.83712 1.97743 11.3099 2.45501 12.6789C2.93259 14.0479 3.77187 15.262 4.8838 16.1925C5.99574 17.123 7.33884 17.7352 8.77058 17.964C10.2023 18.1927 11.6693 18.0297 13.0158 17.492L16.5958 21.073C17.189 21.6667 17.9937 22.0004 18.8329 22.0008C19.6721 22.0012 20.4771 21.6682 21.0708 21.075C21.6645 20.4819 21.9983 19.6772 21.9986 18.8379C21.999 17.9987 21.666 17.1937 21.0728 16.6L17.4928 13.02C18.0757 11.5599 18.218 9.961 17.9022 8.42088C17.5864 6.88077 16.8263 5.46692 15.7158 4.35401ZM10.0338 16.069C8.63811 16.0695 7.2854 15.586 6.20618 14.7009C5.12697 13.8158 4.38801 12.5839 4.11523 11.2151C3.84245 9.8463 4.05271 8.42525 4.71019 7.19408C5.36767 5.96291 6.43169 4.99779 7.72097 4.46316C9.01024 3.92853 10.445 3.85746 11.7808 4.26207C13.1166 4.66669 14.2708 5.52194 15.0467 6.68211C15.8226 7.84229 16.1723 9.23561 16.0361 10.6247C15.8999 12.0137 15.2863 13.3126 14.2998 14.3C13.7409 14.8621 13.0761 15.3078 12.3439 15.6114C11.6116 15.915 10.8265 16.0706 10.0338 16.069ZM19.6588 18.012C19.8679 18.2323 19.9827 18.5255 19.9788 18.8292C19.9748 19.1329 19.8524 19.4231 19.6377 19.6378C19.4229 19.8526 19.1328 19.975 18.8291 19.979C18.5254 19.9829 18.2321 19.8681 18.0118 19.659L14.8258 16.473C15.1401 16.2421 15.4375 15.9892 15.7158 15.716C15.989 15.4377 16.2419 15.1403 16.4728 14.826L19.6588 18.012ZM11.0348 14C11.0348 14.2652 10.9295 14.5196 10.7419 14.7071C10.5544 14.8947 10.3001 15 10.0348 15C8.71843 14.9984 7.45638 14.4749 6.52545 13.5441C5.59452 12.6134 5.07069 11.3514 5.06884 10.035C5.06802 9.76797 5.17258 9.51139 5.35981 9.32098C5.54704 9.13057 5.80182 9.0217 6.06884 9.01801C6.19923 9.01589 6.32874 9.03971 6.44985 9.08809C6.57095 9.13646 6.68124 9.20843 6.77428 9.2998C6.86733 9.39117 6.94129 9.50013 6.99185 9.62034C7.04242 9.74054 7.06859 9.8696 7.06884 10V10.035C7.06963 10.8213 7.38241 11.5752 7.9385 12.1311C8.49459 12.687 9.24854 12.9995 10.0348 13C10.3001 13 10.5544 13.1054 10.7419 13.2929C10.9295 13.4804 11.0348 13.7348 11.0348 14Z" fill="#33363F"/>
</svg>
