<svg width="38" height="39" viewBox="0 0 38 39" fill="none" xmlns="http://www.w3.org/2000/svg">
<g filter="url(#filter0_d_291_1911)">
<ellipse cx="19" cy="18" rx="19" ry="18" fill="#B169FA"/>
<path d="M36.5 18C36.5 27.0373 28.7424 34.5 19 34.5C9.25757 34.5 1.5 27.0373 1.5 18C1.5 8.96268 9.25757 1.5 19 1.5C28.7424 1.5 36.5 8.96268 36.5 18Z" stroke="white" stroke-width="3"/>
</g>
<path d="M26.7611 10.9921L26.7631 10.9954L26.7631 10.9954L28.8311 14.3982C28.8315 14.3988 28.8319 14.3995 28.8323 14.4002C29.1233 14.8728 29.027 15.4666 28.61 15.8324C28.6096 15.8328 28.6092 15.8331 28.6088 15.8335L26.8974 17.3476L26.8935 17.9381L28.5863 19.4707C28.9926 19.837 29.0878 20.4291 28.796 20.901L28.794 20.9043L26.6699 24.281C26.6694 24.2817 26.669 24.2825 26.6685 24.2832C26.3837 24.7416 25.8227 24.9399 25.3137 24.8007C25.3132 24.8006 25.3127 24.8005 25.3122 24.8003L23.0142 24.1803L22.4116 24.5011L21.8366 26.6339L21.8365 26.6342L21.3538 26.5041C21.2766 26.7912 20.9959 27 20.6731 27H16.463C16.1401 27 15.8595 26.7912 15.7823 26.5041L26.7611 10.9921ZM26.7611 10.9921C26.4766 10.532 25.9254 10.3367 25.4156 10.4631L25.4156 10.4631L25.4107 10.4643L23.1039 11.0609L22.4124 10.6836M26.7611 10.9921L22.4124 10.6836M21.8366 8.54788C21.6961 8.02518 21.2037 7.68179 20.6731 7.68179H16.463C15.9325 7.68179 15.4402 8.02503 15.2995 8.54754C15.2995 8.54759 15.2995 8.54764 15.2995 8.54768C15.2995 8.54775 15.2995 8.54781 15.2995 8.54788L14.7237 10.6836L14.0322 11.0609L11.7254 10.4643L11.7254 10.4643L11.7205 10.4631C11.2107 10.3367 10.6595 10.532 10.375 10.9921L10.375 10.9921L10.373 10.9954L8.30383 14.4001C8.01281 14.8727 8.1091 15.4665 8.5261 15.8324C8.52649 15.8328 8.52688 15.8331 8.52726 15.8335L10.2386 17.3477L10.2426 17.9381L8.54979 19.4707C8.54962 19.4708 8.54945 19.471 8.54928 19.4711C8.14345 19.8375 8.04839 20.4293 8.34007 20.901L8.34006 20.901L8.34211 20.9043L10.4662 24.281C10.4666 24.2817 10.467 24.2823 10.4674 24.283C10.7523 24.7416 11.3133 24.94 11.8225 24.8007C11.823 24.8006 11.8234 24.8004 11.8239 24.8003L14.1219 24.1803L14.7245 24.5011L15.2995 26.6339L22.2248 10.5812L22.4124 10.6836M21.8366 8.54788L21.3538 8.67768L21.8365 8.54754L21.8366 8.54788ZM21.8366 8.54788L22.4124 10.6836M18.568 20.7906C16.62 20.7906 15.0894 19.3169 15.0894 17.5909C15.0894 15.8648 16.62 14.3912 18.568 14.3912C20.5161 14.3912 22.0467 15.8648 22.0467 17.5909C22.0467 19.3169 20.5161 20.7906 18.568 20.7906Z" fill="white" stroke="#8014EE"/>
<defs>
<filter id="filter0_d_291_1911" x="0" y="0" width="38" height="39" filterUnits="userSpaceOnUse" color-interpolation-filters="sRGB">
<feFlood flood-opacity="0" result="BackgroundImageFix"/>
<feColorMatrix in="SourceAlpha" type="matrix" values="0 0 0 0 0 0 0 0 0 0 0 0 0 0 0 0 0 0 127 0" result="hardAlpha"/>
<feOffset dy="3"/>
<feComposite in2="hardAlpha" operator="out"/>
<feColorMatrix type="matrix" values="0 0 0 0 0.469182 0 0 0 0 0.180278 0 0 0 0 0.983333 0 0 0 1 0"/>
<feBlend mode="normal" in2="BackgroundImageFix" result="effect1_dropShadow_291_1911"/>
<feBlend mode="normal" in="SourceGraphic" in2="effect1_dropShadow_291_1911" result="shape"/>
</filter>
</defs>
</svg>
